#N canvas -9 -9 1920 966 12;
#X obj 1599 234 vsl 15 128 0.01 1 1 0 empty $_wet1 vol1 0 -9 0 10 -262144
-1 -1 25400 1;
#X obj 1659 234 vsl 15 128 0.01 1 1 0 empty $_wet2 vol2 0 -9 0 10 -262144
-1 -1 17754 1;
#X floatatom 1599 419 5 0 0 0 - - -;
#X obj 1685 383 bng 15 250 50 0 empty empty empty 17 7 0 10 -262144
-1 -1;
#X floatatom 1659 419 5 0 0 0 - - -;
#X obj 1716 234 vsl 15 128 0.01 1 1 0 empty $_wet3 vol3 0 -9 0 10 -262144
-1 -1 17754 1;
#X obj 1776 234 vsl 15 128 0.01 1 1 0 empty $_dry Dry 0 -9 0 10 -262144
-1 -1 17754 1;
#X floatatom 1716 420 5 0 0 0 - - -;
#X floatatom 1776 420 5 0 0 0 - - -;
#X obj 1632 460 max;
#X obj 1759 458 max;
#X obj 1662 489 max;
#X obj 1671 461 +;
#X obj 1719 458 +;
#X obj 1709 489 +;
#X obj 1684 518 /;
#X obj 1730 557 *;
#X floatatom 1730 581 5 0 0 0 - - -;
#X obj 1691 557 *;
#X floatatom 1691 581 5 0 0 0 - - &_vol3;
#X obj 1650 557 *;
#X floatatom 1650 581 5 0 0 0 - - &_vol2;
#X obj 1609 557 *;
#X floatatom 1609 581 5 0 0 0 - - &_vol1;
#X floatatom 1718 515 5 0 0 0 - - -;
#X floatatom 1628 514 5 0 0 0 - - -;
#X obj 63 45 hsl 128 15 -12 12 0 0 $_course1 &_course1 course -2 -8
0 10 -262144 -1 -1 17708 1;
#X obj 63 100 hsl 128 15 -50 50 0 0 $_fine1 &_fineAll fine -2 -8 0
10 -262144 -1 -1 12700 1;
#X obj 63 155 hsl 128 15 0.01 1 1 0 $_wet1 &_wetAll vol -2 -8 0 10
-262144 -1 -1 25500 1;
#X obj 63 210 hsl 128 15 0.25 100 1 0 $_LFOF1 &_LFOFAll LFO_freq -2
-8 0 10 -262144 -1 -1 2938 1;
#X obj 63 265 hsl 128 15 0.02 2 1 0 $_LFOA1 &_LFOAAll LFO_amnt -2 -8
0 10 -262144 -1 -1 0 1;
#X obj 1412 536 inlet~;
#X obj 1458 565 delwrite~ DL 1000;
#X obj 116 717 +~ 0;
#X obj 259 714 +~ 0.5;
#X obj 116 741 wrap~;
#X obj 259 738 wrap~;
#X obj 139 817 cos~;
#X obj 129 766 -~ 0.5;
#X obj 139 789 /~ 2;
#X obj 285 813 cos~;
#X obj 285 764 -~ 0.5;
#X obj 285 788 /~ 2;
#X obj 116 861 *~;
#X obj 257 860 *~;
#X obj 188 672 phasor~;
#X obj 203 427 / 12;
#X floatatom 206 498 5 0 0 0 - - -;
#X msg 176 453 2;
#X obj 206 476 pow;
#X msg 206 521 1;
#X obj 206 545 -;
#X floatatom 206 569 6 0 0 0 - - -;
#X floatatom 206 617 6 0 0 0 - - -;
#X obj 140 839 pow~ 2;
#X obj 286 836 pow~ 2;
#X obj 131 576 cos~;
#X obj 113 601 *~;
#X obj 188 644 +~;
#X obj 131 550 phasor~;
#X obj 194 909 *~;
#X obj 24 771 *~ 58.824;
#X obj 184 763 *~ 58.824;
#X obj 206 593 * 17;
#X obj 175 365 int;
#X obj 271 341 / 100;
#X obj 176 396 +;
#X obj 286 367 bng 15 250 50 0 empty empty empty 17 7 0 10 -262144
-1 -1;
#X obj 173 334 r $_course1;
#X obj 216 395 s &_course1;
#X obj 44 437 s &_courseRound1;
#X floatatom 60 60 5 0 0 0 - &_courseRound1 -;
#X floatatom 60 115 5 0 0 0 - - -;
#X obj 271 315 r $_fine1;
#X floatatom 60 225 5 0 0 0 - - -;
#X obj 131 519 r $_LFOF1;
#X floatatom 26 561 5 0 0 0 - - -;
#X obj 26 584 / 2;
#X obj 26 608 log 10;
#X obj 26 632 * 20;
#X floatatom 26 656 5 0 0 0 - - &_LFOA1;
#X floatatom 60 280 5 0 0 0 - &_LFOA1 -;
#X obj 50 520 r $_LFOA1;
#X floatatom 60 170 5 0 0 0 - &_wet1dB -;
#X floatatom 296 866 5 0 0 0 - &_vol1 -;
#X obj 216 45 hsl 128 15 -12 12 0 0 $_course2 &_course2 course -2 -8
0 10 -262144 -1 -1 20692 1;
#X obj 216 100 hsl 128 15 -50 50 0 0 $_fine2 &_fineAll fine -2 -8 0
10 -262144 -1 -1 12700 1;
#X obj 216 155 hsl 128 15 0.01 1 1 0 $_wet2 &_wetAll vol -2 -8 0 10
-262144 -1 -1 17754 1;
#X obj 216 210 hsl 128 15 0.25 100 1 0 $_LFOF2 &_LFOFAll LFO_freq -2
-8 0 10 -262144 -1 -1 2938 1;
#X obj 216 265 hsl 128 15 0.02 2 1 0 $_LFOA2 &_LFOAAll LFO_amnt -2
-8 0 10 -262144 -1 -1 0 1;
#X floatatom 213 60 5 0 0 0 - &_courseRound2 -;
#X floatatom 213 115 5 0 0 0 - - -;
#X floatatom 213 225 5 0 0 0 - - -;
#X floatatom 213 280 5 0 0 0 - &_LFOA2 -;
#X floatatom 213 170 5 0 0 0 - &_wet2dB -;
#X obj 369 45 hsl 128 15 -12 12 0 0 $_course3 &_course3 course -2 -8
0 10 -262144 -1 -1 24500 1;
#X obj 369 100 hsl 128 15 -50 50 0 0 $_fine2 &_fineAll fine -2 -8 0
10 -262144 -1 -1 12700 1;
#X obj 369 155 hsl 128 15 0.01 1 1 0 $_wet3 &_wetAll vol -2 -8 0 10
-262144 -1 -1 17754 1;
#X obj 369 210 hsl 128 15 0.25 100 1 0 $_LFOF3 &_LFOFAll LFO_freq -2
-8 0 10 -262144 -1 -1 2938 1;
#X obj 369 265 hsl 128 15 0.02 2 1 0 $_LFOA3 &_LFOAAll LFO_amnt -2
-8 0 10 -262144 -1 -1 0 1;
#X floatatom 366 60 5 0 0 0 - &_courseRound3 -;
#X floatatom 366 115 5 0 0 0 - - -;
#X floatatom 366 225 5 0 0 0 - - -;
#X floatatom 366 280 5 0 0 0 - &_LFOA3 -;
#X floatatom 366 170 5 0 0 0 - &_wet3dB -;
#X obj 467 704 +~ 0;
#X obj 610 701 +~ 0.5;
#X obj 467 728 wrap~;
#X obj 610 725 wrap~;
#X obj 490 804 cos~;
#X obj 480 753 -~ 0.5;
#X obj 490 776 /~ 2;
#X obj 636 800 cos~;
#X obj 636 751 -~ 0.5;
#X obj 636 775 /~ 2;
#X obj 467 848 *~;
#X obj 608 847 *~;
#X obj 539 659 phasor~;
#X obj 554 414 / 12;
#X floatatom 557 485 5 0 0 0 - - -;
#X msg 527 440 2;
#X obj 557 463 pow;
#X msg 557 508 1;
#X obj 557 532 -;
#X floatatom 557 556 6 0 0 0 - - -;
#X floatatom 557 604 6 0 0 0 - - -;
#X obj 491 826 pow~ 2;
#X obj 637 823 pow~ 2;
#X obj 482 563 cos~;
#X obj 464 588 *~;
#X obj 539 631 +~;
#X obj 482 537 phasor~;
#X obj 547 900 *~;
#X obj 375 758 *~ 58.824;
#X obj 535 750 *~ 58.824;
#X obj 557 580 * 17;
#X obj 526 352 int;
#X obj 622 328 / 100;
#X obj 527 383 +;
#X obj 637 354 bng 15 250 50 0 empty empty empty 17 7 0 10 -262144
-1 -1;
#X floatatom 377 548 5 0 0 0 - - -;
#X obj 377 571 / 2;
#X obj 377 595 log 10;
#X obj 377 619 * 20;
#X floatatom 377 643 5 0 0 0 - - &_LFOA2;
#X floatatom 639 855 5 0 0 0 - &_vol2 -;
#X obj 825 708 +~ 0;
#X obj 968 705 +~ 0.5;
#X obj 825 732 wrap~;
#X obj 968 729 wrap~;
#X obj 848 808 cos~;
#X obj 838 757 -~ 0.5;
#X obj 848 780 /~ 2;
#X obj 994 804 cos~;
#X obj 994 755 -~ 0.5;
#X obj 994 779 /~ 2;
#X obj 825 852 *~;
#X obj 966 851 *~;
#X obj 897 663 phasor~;
#X obj 912 418 / 12;
#X floatatom 915 489 5 0 0 0 - - -;
#X msg 885 444 2;
#X obj 915 467 pow;
#X msg 915 512 1;
#X obj 915 536 -;
#X floatatom 915 560 6 0 0 0 - - -;
#X floatatom 915 608 6 0 0 0 - - -;
#X obj 849 830 pow~ 2;
#X obj 995 827 pow~ 2;
#X obj 840 567 cos~;
#X obj 822 592 *~;
#X obj 897 635 +~;
#X obj 840 541 phasor~;
#X obj 906 907 *~;
#X obj 733 762 *~ 58.824;
#X obj 893 754 *~ 58.824;
#X obj 915 584 * 17;
#X obj 884 356 int;
#X obj 980 332 / 100;
#X obj 885 387 +;
#X obj 995 358 bng 15 250 50 0 empty empty empty 17 7 0 10 -262144
-1 -1;
#X floatatom 735 552 5 0 0 0 - - -;
#X obj 735 575 / 2;
#X obj 735 599 log 10;
#X obj 735 623 * 20;
#X floatatom 735 647 5 0 0 0 - - &_LFOA3;
#X floatatom 998 859 5 0 0 0 - &_vol3 -;
#X obj 622 302 r $_fine2;
#X obj 524 321 r $_course2;
#X obj 567 382 s &_course2;
#X obj 395 424 s &_courseRound2;
#X obj 401 507 r $_LFOA2;
#X obj 482 506 r $_LFOF2;
#X obj 77 798 vd~ DL;
#X obj 224 790 vd~ DL;
#X obj 428 785 vd~ DL;
#X obj 575 777 vd~ DL;
#X obj 786 789 vd~ DL;
#X obj 933 781 vd~ DL;
#X obj 882 325 r $_course3;
#X obj 980 306 r $_fine3;
#X obj 925 386 s &_course3;
#X obj 753 428 s &_courseRound3;
#X obj 759 511 r $_LFOA3;
#X obj 840 510 r $_LFOF3;
#X obj 544 931 outlet~;
#X obj 903 943 outlet~;
#X obj 195 932 outlet~;
#X obj 806 79 cnv 15 100 60 empty empty empty 20 12 0 14 -233017 -66577
0;
#X obj 1450 657 *~;
#X obj 1450 945 outlet~;
#X obj 987 388 hsl 128 15 0 127 0 0 empty empty empty -2 -8 0 10 -262144
-1 -1 0 1;
#X obj 210 14 hsl 128 15 0.01 1 1 0 $_dry &_wetAll dry -2 -8 0 10 -262144
-1 -1 17754 1;
#X floatatom 340 13 5 0 0 0 - &_drydB -;
#X obj 591 25 loadbang;
#X msg 562 93 \; &_fineAll 0 \; &_wetAll 0.25 \; &_LFOFAll 0.5 \; &_LFOAAll
0.25;
#X obj 563 183 r $_wet1;
#X obj 563 207 log 10;
#X obj 563 231 * 20;
#X floatatom 563 255 5 0 0 0 - - &_wet1dB;
#X obj 628 207 log 10;
#X obj 628 231 * 20;
#X floatatom 628 255 5 0 0 0 - - &_wet2dB;
#X obj 694 207 log 10;
#X obj 694 231 * 20;
#X floatatom 694 255 5 0 0 0 - - &_wet3dB;
#X obj 628 183 r $_wet2;
#X obj 694 183 r $_wet3;
#X obj 1820 466 log 10;
#X obj 1820 490 * 20;
#X floatatom 1820 514 5 0 0 0 - - &_drydB;
#X msg 677 71 \; &_course1 -5 \; &_course2 7 \; &_course3 12 \;;
#X connect 0 0 2 0;
#X connect 0 0 3 0;
#X connect 1 0 4 0;
#X connect 1 0 3 0;
#X connect 2 0 12 0;
#X connect 2 0 22 1;
#X connect 2 0 9 0;
#X connect 3 0 7 0;
#X connect 3 0 8 0;
#X connect 3 0 4 0;
#X connect 3 0 2 0;
#X connect 4 0 12 1;
#X connect 4 0 20 1;
#X connect 4 0 9 1;
#X connect 5 0 7 0;
#X connect 5 0 3 0;
#X connect 6 0 8 0;
#X connect 6 0 3 0;
#X connect 7 0 13 0;
#X connect 7 0 18 1;
#X connect 7 0 10 0;
#X connect 8 0 13 1;
#X connect 8 0 16 1;
#X connect 8 0 10 1;
#X connect 8 0 228 0;
#X connect 9 0 11 0;
#X connect 10 0 11 1;
#X connect 11 0 25 0;
#X connect 11 0 15 0;
#X connect 12 0 14 0;
#X connect 13 0 14 1;
#X connect 14 0 15 1;
#X connect 14 0 24 0;
#X connect 15 0 22 0;
#X connect 15 0 20 0;
#X connect 15 0 18 0;
#X connect 15 0 16 0;
#X connect 16 0 17 0;
#X connect 17 0 209 1;
#X connect 18 0 19 0;
#X connect 20 0 21 0;
#X connect 22 0 23 0;
#X connect 27 0 72 0;
#X connect 29 0 74 0;
#X connect 31 0 32 0;
#X connect 31 0 209 0;
#X connect 33 0 35 0;
#X connect 34 0 36 0;
#X connect 35 0 38 0;
#X connect 35 0 61 0;
#X connect 36 0 41 0;
#X connect 36 0 62 0;
#X connect 37 0 54 0;
#X connect 38 0 39 0;
#X connect 39 0 37 0;
#X connect 40 0 55 0;
#X connect 41 0 42 0;
#X connect 42 0 40 0;
#X connect 43 0 60 0;
#X connect 44 0 60 0;
#X connect 45 0 33 0;
#X connect 45 0 34 0;
#X connect 46 0 49 1;
#X connect 46 0 48 0;
#X connect 47 0 51 1;
#X connect 47 0 50 0;
#X connect 48 0 49 0;
#X connect 49 0 47 0;
#X connect 50 0 51 0;
#X connect 51 0 52 0;
#X connect 52 0 63 0;
#X connect 53 0 58 1;
#X connect 54 0 43 1;
#X connect 55 0 44 1;
#X connect 56 0 57 1;
#X connect 57 0 58 0;
#X connect 58 0 45 0;
#X connect 59 0 56 0;
#X connect 60 0 207 0;
#X connect 61 0 193 0;
#X connect 62 0 194 0;
#X connect 63 0 53 0;
#X connect 64 0 66 0;
#X connect 64 0 70 0;
#X connect 65 0 66 1;
#X connect 65 0 67 0;
#X connect 66 0 46 0;
#X connect 66 0 48 0;
#X connect 67 0 69 0;
#X connect 68 0 64 0;
#X connect 73 0 65 0;
#X connect 75 0 59 0;
#X connect 76 0 77 0;
#X connect 77 0 78 0;
#X connect 78 0 79 0;
#X connect 79 0 80 0;
#X connect 82 0 57 0;
#X connect 82 0 76 0;
#X connect 84 0 60 1;
#X connect 86 0 91 0;
#X connect 88 0 92 0;
#X connect 96 0 101 0;
#X connect 98 0 102 0;
#X connect 105 0 107 0;
#X connect 106 0 108 0;
#X connect 107 0 110 0;
#X connect 107 0 133 0;
#X connect 108 0 113 0;
#X connect 108 0 134 0;
#X connect 109 0 126 0;
#X connect 110 0 111 0;
#X connect 111 0 109 0;
#X connect 112 0 127 0;
#X connect 113 0 114 0;
#X connect 114 0 112 0;
#X connect 115 0 132 0;
#X connect 116 0 132 0;
#X connect 117 0 105 0;
#X connect 117 0 106 0;
#X connect 118 0 121 1;
#X connect 118 0 120 0;
#X connect 119 0 123 1;
#X connect 119 0 122 0;
#X connect 120 0 121 0;
#X connect 121 0 119 0;
#X connect 122 0 123 0;
#X connect 123 0 124 0;
#X connect 124 0 135 0;
#X connect 125 0 130 1;
#X connect 126 0 115 1;
#X connect 127 0 116 1;
#X connect 128 0 129 1;
#X connect 129 0 130 0;
#X connect 130 0 117 0;
#X connect 131 0 128 0;
#X connect 132 0 205 0;
#X connect 133 0 195 0;
#X connect 134 0 196 0;
#X connect 135 0 125 0;
#X connect 136 0 138 0;
#X connect 136 0 190 0;
#X connect 137 0 138 1;
#X connect 137 0 139 0;
#X connect 138 0 118 0;
#X connect 138 0 120 0;
#X connect 139 0 189 0;
#X connect 140 0 141 0;
#X connect 141 0 142 0;
#X connect 142 0 143 0;
#X connect 143 0 144 0;
#X connect 145 0 132 1;
#X connect 146 0 148 0;
#X connect 147 0 149 0;
#X connect 148 0 151 0;
#X connect 148 0 174 0;
#X connect 149 0 154 0;
#X connect 149 0 175 0;
#X connect 150 0 167 0;
#X connect 151 0 152 0;
#X connect 152 0 150 0;
#X connect 153 0 168 0;
#X connect 154 0 155 0;
#X connect 155 0 153 0;
#X connect 156 0 173 0;
#X connect 157 0 173 0;
#X connect 158 0 146 0;
#X connect 158 0 147 0;
#X connect 159 0 162 1;
#X connect 159 0 161 0;
#X connect 160 0 164 1;
#X connect 160 0 163 0;
#X connect 161 0 162 0;
#X connect 162 0 160 0;
#X connect 163 0 164 0;
#X connect 164 0 165 0;
#X connect 165 0 176 0;
#X connect 166 0 171 1;
#X connect 167 0 156 1;
#X connect 168 0 157 1;
#X connect 169 0 170 1;
#X connect 170 0 171 0;
#X connect 171 0 158 0;
#X connect 172 0 169 0;
#X connect 173 0 206 0;
#X connect 174 0 197 0;
#X connect 175 0 198 0;
#X connect 176 0 166 0;
#X connect 177 0 179 0;
#X connect 177 0 202 0;
#X connect 178 0 179 1;
#X connect 178 0 180 0;
#X connect 179 0 159 0;
#X connect 179 0 161 0;
#X connect 180 0 201 0;
#X connect 181 0 182 0;
#X connect 182 0 183 0;
#X connect 183 0 184 0;
#X connect 184 0 185 0;
#X connect 186 0 173 1;
#X connect 187 0 137 0;
#X connect 188 0 136 0;
#X connect 191 0 129 0;
#X connect 191 0 140 0;
#X connect 192 0 131 0;
#X connect 193 0 43 0;
#X connect 194 0 44 0;
#X connect 195 0 115 0;
#X connect 196 0 116 0;
#X connect 197 0 156 0;
#X connect 198 0 157 0;
#X connect 199 0 177 0;
#X connect 200 0 178 0;
#X connect 203 0 170 0;
#X connect 203 0 181 0;
#X connect 204 0 172 0;
#X connect 209 0 210 0;
#X connect 214 0 231 0;
#X connect 214 0 215 0;
#X connect 216 0 217 0;
#X connect 217 0 218 0;
#X connect 218 0 219 0;
#X connect 220 0 221 0;
#X connect 221 0 222 0;
#X connect 223 0 224 0;
#X connect 224 0 225 0;
#X connect 226 0 220 0;
#X connect 227 0 223 0;
#X connect 228 0 229 0;
#X connect 229 0 230 0;
#X coords 0 -1 1 1 450 300 2 55 0;
