#N canvas -9 -9 1920 966 12;
#X obj 385 57 delwrite~ foo 1000;
#X obj 157 410 vd~ foo;
#X obj 196 329 +~ 0;
#X obj 339 326 +~ 0.5;
#X obj 196 353 wrap~;
#X obj 339 350 wrap~;
#X obj 304 402 vd~ foo;
#X obj 219 429 cos~;
#X obj 209 378 -~ 0.5;
#X obj 219 401 /~ 2;
#X obj 365 425 cos~;
#X obj 365 376 -~ 0.5;
#X obj 365 400 /~ 2;
#X obj 196 473 *~;
#X obj 337 472 *~;
#X obj 254 294 phasor~;
#X obj 283 39 / 12;
#X floatatom 286 110 5 0 0 0 - - -;
#X msg 256 65 2;
#X obj 286 88 pow;
#X msg 286 133 1;
#X obj 286 157 -;
#X floatatom 286 181 6 0 0 0 - - -;
#X floatatom 286 229 6 0 0 0 - - -;
#X obj 220 451 pow~ 2;
#X obj 366 448 pow~ 2;
#X obj 180 209 cos~;
#X obj 13 198 hsl 128 15 0.125 100 1 0 empty empty LFO_Freq -2 -8 0
10 -262144 -1 -1 2634 1;
#X obj 162 234 *~;
#X obj 13 256 hsl 128 15 1e-005 2 1 0 empty empty LFO_Amnt -2 -8 0
10 -262144 -1 -1 10536 1;
#X obj 254 261 +~;
#X obj 180 183 phasor~;
#X obj 128 514 *~;
#X obj 104 383 *~ 58.824;
#X obj 264 375 *~ 58.824;
#X obj 286 205 * 17;
#X obj 685 46 cnv 15 100 60 empty empty empty 20 12 0 14 -233017 -66577
0;
#X floatatom 10 219 5 0 0 0 - - -;
#X obj 13 19 hsl 128 15 -12 12 0 1 empty empty course -2 -8 0 10 -262144
-1 -1 10054 1;
#X floatatom 10 39 5 0 0 0 - - -;
#X obj 128 544 outlet~;
#X obj 13 140 hsl 128 15 0.001 1 1 0 empty empty Wet -2 -8 0 10 -262144
-1 -1 10151 1;
#X obj 385 27 inlet~;
#X obj -87 150 log 10;
#X obj -73 176 * 20;
#X floatatom 10 160 5 0 0 0 - - -;
#X obj -79 -59 loadbang;
#X floatatom -96 290 5 0 0 0 - - -;
#X obj -96 313 / 2;
#X obj -96 337 log 10;
#X obj -96 361 * 20;
#X floatatom 10 277 5 0 0 0 - - -;
#X msg 1 -20 7;
#X msg -39 100 0.25;
#X msg -30 167 0.5;
#X msg -40 215 0.25;
#X obj 226 11 int;
#X obj 13 77 hsl 128 15 -50 50 0 0 empty empty fine -2 -8 0 10 -262144
-1 -1 6350 1;
#X floatatom 10 97 5 0 0 0 - - -;
#X obj 174 78 / 100;
#X obj 227 42 +;
#X obj 169 -25 bng 15 250 50 0 empty empty empty 17 7 0 10 -262144
-1 -1;
#X msg -39 21 0;
#X connect 1 0 13 0;
#X connect 2 0 4 0;
#X connect 3 0 5 0;
#X connect 4 0 8 0;
#X connect 4 0 33 0;
#X connect 5 0 11 0;
#X connect 5 0 34 0;
#X connect 6 0 14 0;
#X connect 7 0 24 0;
#X connect 8 0 9 0;
#X connect 9 0 7 0;
#X connect 10 0 25 0;
#X connect 11 0 12 0;
#X connect 12 0 10 0;
#X connect 13 0 32 1;
#X connect 14 0 32 1;
#X connect 15 0 2 0;
#X connect 15 0 3 0;
#X connect 16 0 19 1;
#X connect 16 0 18 0;
#X connect 17 0 21 1;
#X connect 17 0 20 0;
#X connect 18 0 19 0;
#X connect 19 0 17 0;
#X connect 20 0 21 0;
#X connect 21 0 22 0;
#X connect 22 0 35 0;
#X connect 23 0 30 1;
#X connect 24 0 13 1;
#X connect 25 0 14 1;
#X connect 26 0 28 1;
#X connect 27 0 37 0;
#X connect 28 0 30 0;
#X connect 29 0 47 0;
#X connect 29 0 28 0;
#X connect 30 0 15 0;
#X connect 31 0 26 0;
#X connect 32 0 40 0;
#X connect 33 0 1 0;
#X connect 34 0 6 0;
#X connect 35 0 23 0;
#X connect 37 0 31 0;
#X connect 38 0 56 0;
#X connect 41 0 43 0;
#X connect 41 0 32 0;
#X connect 42 0 0 0;
#X connect 43 0 44 0;
#X connect 44 0 45 0;
#X connect 46 0 52 0;
#X connect 46 0 53 0;
#X connect 46 0 54 0;
#X connect 46 0 55 0;
#X connect 46 0 62 0;
#X connect 47 0 48 0;
#X connect 48 0 49 0;
#X connect 49 0 50 0;
#X connect 50 0 51 0;
#X connect 52 0 38 0;
#X connect 53 0 41 0;
#X connect 54 0 27 0;
#X connect 55 0 29 0;
#X connect 56 0 39 0;
#X connect 56 0 60 0;
#X connect 57 0 58 0;
#X connect 58 0 59 0;
#X connect 59 0 60 1;
#X connect 59 0 61 0;
#X connect 60 0 16 0;
#X connect 60 0 18 0;
#X connect 61 0 38 0;
#X connect 62 0 57 0;
#X coords 0 -1 1 1 150 300 2 1 1;
